<mxfile host="app.diagrams.net" modified="2021-02-06T09:26:59.023Z" agent="5.0 (Windows NT 10.0; Win64; x64) AppleWebKit/537.36 (KHTML, like Gecko) Chrome/88.0.4324.146 Safari/537.36 Edg/88.0.705.62" etag="artGFz5kQIQ3ITMwWb1L" version="14.2.9" type="github">
  <diagram id="aMQeumH_1udDUqRHYmrs" name="Page-1">
    <mxGraphModel dx="1865" dy="556" grid="1" gridSize="10" guides="1" tooltips="1" connect="1" arrows="1" fold="1" page="1" pageScale="1" pageWidth="827" pageHeight="1169" math="0" shadow="0">
      <root>
        <mxCell id="0" />
        <mxCell id="1" parent="0" />
        <mxCell id="g9iabU6D1vkNq1i1jFu2-2" value="STUDENT" style="rounded=0;whiteSpace=wrap;html=1;strokeWidth=2;fontStyle=1" vertex="1" parent="1">
          <mxGeometry x="120" y="170" width="100" height="30" as="geometry" />
        </mxCell>
        <mxCell id="g9iabU6D1vkNq1i1jFu2-4" value="COURSE" style="rounded=0;whiteSpace=wrap;html=1;strokeWidth=2;fontStyle=1" vertex="1" parent="1">
          <mxGeometry x="620" y="650" width="100" height="30" as="geometry" />
        </mxCell>
        <mxCell id="g9iabU6D1vkNq1i1jFu2-5" value="DEPARTMENT" style="rounded=0;whiteSpace=wrap;html=1;strokeWidth=2;fontStyle=1" vertex="1" parent="1">
          <mxGeometry x="620" y="170" width="100" height="30" as="geometry" />
        </mxCell>
        <mxCell id="g9iabU6D1vkNq1i1jFu2-6" value="SName" style="ellipse;whiteSpace=wrap;html=1;align=center;fontStyle=0;strokeWidth=2;" vertex="1" parent="1">
          <mxGeometry x="120" y="90" width="70" height="30" as="geometry" />
        </mxCell>
        <mxCell id="g9iabU6D1vkNq1i1jFu2-8" value="FName" style="ellipse;whiteSpace=wrap;html=1;align=center;fontStyle=0;strokeWidth=2;" vertex="1" parent="1">
          <mxGeometry x="50" y="30" width="70" height="30" as="geometry" />
        </mxCell>
        <mxCell id="g9iabU6D1vkNq1i1jFu2-9" value="MName" style="ellipse;whiteSpace=wrap;html=1;align=center;fontStyle=0;strokeWidth=2;" vertex="1" parent="1">
          <mxGeometry x="135" y="20" width="70" height="30" as="geometry" />
        </mxCell>
        <mxCell id="g9iabU6D1vkNq1i1jFu2-10" value="LName" style="ellipse;whiteSpace=wrap;html=1;align=center;fontStyle=0;strokeWidth=2;" vertex="1" parent="1">
          <mxGeometry x="220" y="30" width="70" height="30" as="geometry" />
        </mxCell>
        <mxCell id="g9iabU6D1vkNq1i1jFu2-12" value="SSN" style="ellipse;whiteSpace=wrap;html=1;align=center;fontStyle=4;strokeWidth=2;" vertex="1" parent="1">
          <mxGeometry y="80" width="70" height="30" as="geometry" />
        </mxCell>
        <mxCell id="g9iabU6D1vkNq1i1jFu2-13" value="SNum" style="ellipse;whiteSpace=wrap;html=1;align=center;fontStyle=4;strokeWidth=2;" vertex="1" parent="1">
          <mxGeometry x="-30" y="130" width="70" height="30" as="geometry" />
        </mxCell>
        <mxCell id="g9iabU6D1vkNq1i1jFu2-14" value="DOB" style="ellipse;whiteSpace=wrap;html=1;align=center;fontStyle=0;strokeWidth=2;" vertex="1" parent="1">
          <mxGeometry x="270" y="60" width="70" height="30" as="geometry" />
        </mxCell>
        <mxCell id="g9iabU6D1vkNq1i1jFu2-15" value="Sex" style="ellipse;whiteSpace=wrap;html=1;align=center;fontStyle=0;strokeWidth=2;" vertex="1" parent="1">
          <mxGeometry x="300" y="100" width="70" height="30" as="geometry" />
        </mxCell>
        <mxCell id="g9iabU6D1vkNq1i1jFu2-16" value="Degree" style="ellipse;whiteSpace=wrap;html=1;align=center;fontStyle=0;strokeWidth=2;" vertex="1" parent="1">
          <mxGeometry x="-40" y="180" width="70" height="30" as="geometry" />
        </mxCell>
        <mxCell id="g9iabU6D1vkNq1i1jFu2-17" value="Class" style="ellipse;whiteSpace=wrap;html=1;align=center;fontStyle=0;strokeWidth=2;" vertex="1" parent="1">
          <mxGeometry x="-40" y="230" width="70" height="30" as="geometry" />
        </mxCell>
        <mxCell id="g9iabU6D1vkNq1i1jFu2-18" value="Current_Add" style="ellipse;whiteSpace=wrap;html=1;align=center;fontStyle=0;strokeWidth=2;" vertex="1" parent="1">
          <mxGeometry x="-30" y="280" width="80" height="30" as="geometry" />
        </mxCell>
        <mxCell id="g9iabU6D1vkNq1i1jFu2-19" value="Current_Phone" style="ellipse;whiteSpace=wrap;html=1;align=center;fontStyle=0;strokeWidth=2;" vertex="1" parent="1">
          <mxGeometry x="-20" y="320" width="90" height="30" as="geometry" />
        </mxCell>
        <mxCell id="g9iabU6D1vkNq1i1jFu2-20" value="Permanent_Add" style="ellipse;whiteSpace=wrap;html=1;align=center;fontStyle=0;strokeWidth=2;" vertex="1" parent="1">
          <mxGeometry x="240" y="280" width="95" height="30" as="geometry" />
        </mxCell>
        <mxCell id="g9iabU6D1vkNq1i1jFu2-21" value="Permanent_Phone" style="ellipse;whiteSpace=wrap;html=1;align=center;fontStyle=0;strokeWidth=2;" vertex="1" parent="1">
          <mxGeometry x="180" y="340" width="110" height="30" as="geometry" />
        </mxCell>
        <mxCell id="g9iabU6D1vkNq1i1jFu2-22" value="City" style="ellipse;whiteSpace=wrap;html=1;align=center;fontStyle=0;strokeWidth=2;" vertex="1" parent="1">
          <mxGeometry x="370" y="365" width="70" height="30" as="geometry" />
        </mxCell>
        <mxCell id="g9iabU6D1vkNq1i1jFu2-23" value="State" style="ellipse;whiteSpace=wrap;html=1;align=center;fontStyle=0;strokeWidth=2;" vertex="1" parent="1">
          <mxGeometry x="370" y="321" width="70" height="30" as="geometry" />
        </mxCell>
        <mxCell id="g9iabU6D1vkNq1i1jFu2-24" value="ZipCode" style="ellipse;whiteSpace=wrap;html=1;align=center;fontStyle=0;strokeWidth=2;" vertex="1" parent="1">
          <mxGeometry x="370" y="275" width="70" height="30" as="geometry" />
        </mxCell>
        <mxCell id="g9iabU6D1vkNq1i1jFu2-25" value="DName" style="ellipse;whiteSpace=wrap;html=1;align=center;fontStyle=4;strokeWidth=2;" vertex="1" parent="1">
          <mxGeometry x="540" y="100" width="70" height="30" as="geometry" />
        </mxCell>
        <mxCell id="g9iabU6D1vkNq1i1jFu2-26" value="DCode" style="ellipse;whiteSpace=wrap;html=1;align=center;fontStyle=4;strokeWidth=2;" vertex="1" parent="1">
          <mxGeometry x="610" y="70" width="70" height="30" as="geometry" />
        </mxCell>
        <mxCell id="g9iabU6D1vkNq1i1jFu2-27" value="DNum" style="ellipse;whiteSpace=wrap;html=1;align=center;fontStyle=0;strokeWidth=2;" vertex="1" parent="1">
          <mxGeometry x="700" y="70" width="70" height="30" as="geometry" />
        </mxCell>
        <mxCell id="g9iabU6D1vkNq1i1jFu2-28" value="DPhone" style="ellipse;whiteSpace=wrap;html=1;align=center;fontStyle=0;strokeWidth=2;" vertex="1" parent="1">
          <mxGeometry x="790" y="80" width="70" height="30" as="geometry" />
        </mxCell>
        <mxCell id="g9iabU6D1vkNq1i1jFu2-29" value="College" style="ellipse;whiteSpace=wrap;html=1;align=center;fontStyle=0;strokeWidth=2;" vertex="1" parent="1">
          <mxGeometry x="827" y="130" width="70" height="30" as="geometry" />
        </mxCell>
        <mxCell id="g9iabU6D1vkNq1i1jFu2-30" value="CName" style="ellipse;whiteSpace=wrap;html=1;align=center;fontStyle=0;strokeWidth=2;" vertex="1" parent="1">
          <mxGeometry x="570" y="550" width="70" height="30" as="geometry" />
        </mxCell>
        <mxCell id="g9iabU6D1vkNq1i1jFu2-31" value="Descript" style="ellipse;whiteSpace=wrap;html=1;align=center;fontStyle=0;strokeWidth=2;" vertex="1" parent="1">
          <mxGeometry x="790" y="680" width="70" height="30" as="geometry" />
        </mxCell>
        <mxCell id="g9iabU6D1vkNq1i1jFu2-32" value="CNum" style="ellipse;whiteSpace=wrap;html=1;align=center;fontStyle=4;strokeWidth=2;" vertex="1" parent="1">
          <mxGeometry x="740" y="530" width="70" height="30" as="geometry" />
        </mxCell>
        <mxCell id="g9iabU6D1vkNq1i1jFu2-33" value="Hours" style="ellipse;whiteSpace=wrap;html=1;align=center;fontStyle=0;strokeWidth=2;" vertex="1" parent="1">
          <mxGeometry x="790" y="580" width="70" height="30" as="geometry" />
        </mxCell>
        <mxCell id="g9iabU6D1vkNq1i1jFu2-34" value="Level" style="ellipse;whiteSpace=wrap;html=1;align=center;fontStyle=0;strokeWidth=2;" vertex="1" parent="1">
          <mxGeometry x="790" y="630" width="70" height="30" as="geometry" />
        </mxCell>
        <mxCell id="g9iabU6D1vkNq1i1jFu2-35" value="Instructor" style="ellipse;whiteSpace=wrap;html=1;align=center;fontStyle=0;strokeWidth=2;" vertex="1" parent="1">
          <mxGeometry y="570" width="70" height="30" as="geometry" />
        </mxCell>
        <mxCell id="g9iabU6D1vkNq1i1jFu2-40" value="&lt;b&gt;SECTION&lt;/b&gt;" style="shape=ext;margin=3;double=1;whiteSpace=wrap;html=1;align=center;strokeWidth=2;" vertex="1" parent="1">
          <mxGeometry x="70" y="640" width="100" height="40" as="geometry" />
        </mxCell>
        <mxCell id="g9iabU6D1vkNq1i1jFu2-41" value="" style="endArrow=none;html=1;rounded=0;exitX=0.43;exitY=-0.02;exitDx=0;exitDy=0;exitPerimeter=0;entryX=0.5;entryY=1;entryDx=0;entryDy=0;" edge="1" parent="1" source="g9iabU6D1vkNq1i1jFu2-2" target="g9iabU6D1vkNq1i1jFu2-6">
          <mxGeometry relative="1" as="geometry">
            <mxPoint x="310" y="210" as="sourcePoint" />
            <mxPoint x="470" y="210" as="targetPoint" />
          </mxGeometry>
        </mxCell>
        <mxCell id="g9iabU6D1vkNq1i1jFu2-42" value="" style="endArrow=none;html=1;rounded=0;exitX=0.75;exitY=0;exitDx=0;exitDy=0;entryX=0;entryY=0.5;entryDx=0;entryDy=0;" edge="1" parent="1" source="g9iabU6D1vkNq1i1jFu2-2" target="g9iabU6D1vkNq1i1jFu2-15">
          <mxGeometry relative="1" as="geometry">
            <mxPoint x="173" y="179.39999999999998" as="sourcePoint" />
            <mxPoint x="165" y="130" as="targetPoint" />
          </mxGeometry>
        </mxCell>
        <mxCell id="g9iabU6D1vkNq1i1jFu2-43" value="" style="endArrow=none;html=1;rounded=0;exitX=0.75;exitY=1;exitDx=0;exitDy=0;entryX=0;entryY=0.5;entryDx=0;entryDy=0;" edge="1" parent="1" source="g9iabU6D1vkNq1i1jFu2-2" target="g9iabU6D1vkNq1i1jFu2-20">
          <mxGeometry relative="1" as="geometry">
            <mxPoint x="205" y="180" as="sourcePoint" />
            <mxPoint x="310" y="145" as="targetPoint" />
          </mxGeometry>
        </mxCell>
        <mxCell id="g9iabU6D1vkNq1i1jFu2-44" value="" style="endArrow=none;html=1;rounded=0;exitX=0.606;exitY=1.02;exitDx=0;exitDy=0;entryX=0.5;entryY=0;entryDx=0;entryDy=0;exitPerimeter=0;" edge="1" parent="1" source="g9iabU6D1vkNq1i1jFu2-2" target="g9iabU6D1vkNq1i1jFu2-21">
          <mxGeometry relative="1" as="geometry">
            <mxPoint x="230" y="187.5" as="sourcePoint" />
            <mxPoint x="275" y="215" as="targetPoint" />
          </mxGeometry>
        </mxCell>
        <mxCell id="g9iabU6D1vkNq1i1jFu2-45" value="" style="endArrow=none;html=1;rounded=0;exitX=0.422;exitY=1.047;exitDx=0;exitDy=0;entryX=1;entryY=0.5;entryDx=0;entryDy=0;exitPerimeter=0;" edge="1" parent="1" source="g9iabU6D1vkNq1i1jFu2-2" target="g9iabU6D1vkNq1i1jFu2-19">
          <mxGeometry relative="1" as="geometry">
            <mxPoint x="230" y="202.5" as="sourcePoint" />
            <mxPoint x="260" y="255" as="targetPoint" />
          </mxGeometry>
        </mxCell>
        <mxCell id="g9iabU6D1vkNq1i1jFu2-46" value="" style="endArrow=none;html=1;rounded=0;exitX=0.25;exitY=1;exitDx=0;exitDy=0;entryX=1;entryY=0.5;entryDx=0;entryDy=0;" edge="1" parent="1" source="g9iabU6D1vkNq1i1jFu2-2" target="g9iabU6D1vkNq1i1jFu2-18">
          <mxGeometry relative="1" as="geometry">
            <mxPoint x="180" y="210" as="sourcePoint" />
            <mxPoint x="80" y="345" as="targetPoint" />
          </mxGeometry>
        </mxCell>
        <mxCell id="g9iabU6D1vkNq1i1jFu2-47" value="" style="endArrow=none;html=1;rounded=0;exitX=0;exitY=1;exitDx=0;exitDy=0;entryX=1;entryY=0.5;entryDx=0;entryDy=0;" edge="1" parent="1" source="g9iabU6D1vkNq1i1jFu2-2" target="g9iabU6D1vkNq1i1jFu2-17">
          <mxGeometry relative="1" as="geometry">
            <mxPoint x="163.4000000000001" y="211.40999999999997" as="sourcePoint" />
            <mxPoint x="60" y="305" as="targetPoint" />
          </mxGeometry>
        </mxCell>
        <mxCell id="g9iabU6D1vkNq1i1jFu2-48" value="" style="endArrow=none;html=1;rounded=0;exitX=0;exitY=0.5;exitDx=0;exitDy=0;entryX=1;entryY=0.5;entryDx=0;entryDy=0;" edge="1" parent="1" source="g9iabU6D1vkNq1i1jFu2-2" target="g9iabU6D1vkNq1i1jFu2-16">
          <mxGeometry relative="1" as="geometry">
            <mxPoint x="141" y="213.80999999999995" as="sourcePoint" />
            <mxPoint x="40" y="255" as="targetPoint" />
          </mxGeometry>
        </mxCell>
        <mxCell id="g9iabU6D1vkNq1i1jFu2-49" value="" style="endArrow=none;html=1;rounded=0;exitX=0;exitY=0.25;exitDx=0;exitDy=0;entryX=1;entryY=0.5;entryDx=0;entryDy=0;" edge="1" parent="1" source="g9iabU6D1vkNq1i1jFu2-2" target="g9iabU6D1vkNq1i1jFu2-13">
          <mxGeometry relative="1" as="geometry">
            <mxPoint x="151" y="223.80999999999995" as="sourcePoint" />
            <mxPoint x="50" y="265" as="targetPoint" />
          </mxGeometry>
        </mxCell>
        <mxCell id="g9iabU6D1vkNq1i1jFu2-50" value="" style="endArrow=none;html=1;rounded=0;exitX=0.25;exitY=0;exitDx=0;exitDy=0;entryX=1;entryY=1;entryDx=0;entryDy=0;" edge="1" parent="1" source="g9iabU6D1vkNq1i1jFu2-2" target="g9iabU6D1vkNq1i1jFu2-12">
          <mxGeometry relative="1" as="geometry">
            <mxPoint x="130" y="187.5" as="sourcePoint" />
            <mxPoint x="50" y="155" as="targetPoint" />
          </mxGeometry>
        </mxCell>
        <mxCell id="g9iabU6D1vkNq1i1jFu2-51" value="" style="endArrow=none;html=1;rounded=0;exitX=1;exitY=1;exitDx=0;exitDy=0;entryX=0.5;entryY=0;entryDx=0;entryDy=0;" edge="1" parent="1" source="g9iabU6D1vkNq1i1jFu2-8" target="g9iabU6D1vkNq1i1jFu2-6">
          <mxGeometry relative="1" as="geometry">
            <mxPoint x="173" y="179.39999999999998" as="sourcePoint" />
            <mxPoint x="165" y="130" as="targetPoint" />
          </mxGeometry>
        </mxCell>
        <mxCell id="g9iabU6D1vkNq1i1jFu2-52" value="" style="endArrow=none;html=1;rounded=0;exitX=0.5;exitY=1;exitDx=0;exitDy=0;" edge="1" parent="1" source="g9iabU6D1vkNq1i1jFu2-9" target="g9iabU6D1vkNq1i1jFu2-6">
          <mxGeometry relative="1" as="geometry">
            <mxPoint x="119.74873734152925" y="65.6066017177983" as="sourcePoint" />
            <mxPoint x="160" y="88" as="targetPoint" />
          </mxGeometry>
        </mxCell>
        <mxCell id="g9iabU6D1vkNq1i1jFu2-53" value="" style="endArrow=none;html=1;rounded=0;exitX=0;exitY=1;exitDx=0;exitDy=0;entryX=1;entryY=0;entryDx=0;entryDy=0;" edge="1" parent="1" source="g9iabU6D1vkNq1i1jFu2-10" target="g9iabU6D1vkNq1i1jFu2-6">
          <mxGeometry relative="1" as="geometry">
            <mxPoint x="129.74873734152925" y="75.6066017177983" as="sourcePoint" />
            <mxPoint x="175" y="110" as="targetPoint" />
          </mxGeometry>
        </mxCell>
        <mxCell id="g9iabU6D1vkNq1i1jFu2-54" value="" style="endArrow=none;html=1;rounded=0;exitX=0;exitY=0.5;exitDx=0;exitDy=0;entryX=1;entryY=0.5;entryDx=0;entryDy=0;" edge="1" parent="1" source="g9iabU6D1vkNq1i1jFu2-24" target="g9iabU6D1vkNq1i1jFu2-20">
          <mxGeometry relative="1" as="geometry">
            <mxPoint x="230" y="187.5" as="sourcePoint" />
            <mxPoint x="275" y="215" as="targetPoint" />
          </mxGeometry>
        </mxCell>
        <mxCell id="g9iabU6D1vkNq1i1jFu2-55" value="" style="endArrow=none;html=1;rounded=0;exitX=0;exitY=0.5;exitDx=0;exitDy=0;entryX=1;entryY=0.5;entryDx=0;entryDy=0;" edge="1" parent="1" source="g9iabU6D1vkNq1i1jFu2-23" target="g9iabU6D1vkNq1i1jFu2-20">
          <mxGeometry relative="1" as="geometry">
            <mxPoint x="400" y="195" as="sourcePoint" />
            <mxPoint x="370" y="215" as="targetPoint" />
          </mxGeometry>
        </mxCell>
        <mxCell id="g9iabU6D1vkNq1i1jFu2-56" value="" style="endArrow=none;html=1;rounded=0;exitX=0;exitY=0.5;exitDx=0;exitDy=0;entryX=1;entryY=0.5;entryDx=0;entryDy=0;" edge="1" parent="1" source="g9iabU6D1vkNq1i1jFu2-22" target="g9iabU6D1vkNq1i1jFu2-20">
          <mxGeometry relative="1" as="geometry">
            <mxPoint x="400" y="241" as="sourcePoint" />
            <mxPoint x="360" y="210" as="targetPoint" />
          </mxGeometry>
        </mxCell>
        <mxCell id="g9iabU6D1vkNq1i1jFu2-57" value="" style="endArrow=none;html=1;rounded=0;entryX=0;entryY=0;entryDx=0;entryDy=0;exitX=1;exitY=1;exitDx=0;exitDy=0;" edge="1" parent="1" source="g9iabU6D1vkNq1i1jFu2-25" target="g9iabU6D1vkNq1i1jFu2-5">
          <mxGeometry relative="1" as="geometry">
            <mxPoint x="310" y="300" as="sourcePoint" />
            <mxPoint x="470" y="300" as="targetPoint" />
          </mxGeometry>
        </mxCell>
        <mxCell id="g9iabU6D1vkNq1i1jFu2-58" value="" style="endArrow=none;html=1;rounded=0;entryX=0.25;entryY=0;entryDx=0;entryDy=0;exitX=0.5;exitY=1;exitDx=0;exitDy=0;" edge="1" parent="1" source="g9iabU6D1vkNq1i1jFu2-26" target="g9iabU6D1vkNq1i1jFu2-5">
          <mxGeometry relative="1" as="geometry">
            <mxPoint x="609.7487373415292" y="135.6066017177984" as="sourcePoint" />
            <mxPoint x="630" y="180" as="targetPoint" />
          </mxGeometry>
        </mxCell>
        <mxCell id="g9iabU6D1vkNq1i1jFu2-59" value="" style="endArrow=none;html=1;rounded=0;entryX=0.5;entryY=0;entryDx=0;entryDy=0;exitX=0.5;exitY=1;exitDx=0;exitDy=0;" edge="1" parent="1" source="g9iabU6D1vkNq1i1jFu2-27" target="g9iabU6D1vkNq1i1jFu2-5">
          <mxGeometry relative="1" as="geometry">
            <mxPoint x="655" y="110" as="sourcePoint" />
            <mxPoint x="655" y="180" as="targetPoint" />
          </mxGeometry>
        </mxCell>
        <mxCell id="g9iabU6D1vkNq1i1jFu2-60" value="" style="endArrow=none;html=1;rounded=0;entryX=0.75;entryY=0;entryDx=0;entryDy=0;exitX=0;exitY=1;exitDx=0;exitDy=0;" edge="1" parent="1" source="g9iabU6D1vkNq1i1jFu2-28" target="g9iabU6D1vkNq1i1jFu2-5">
          <mxGeometry relative="1" as="geometry">
            <mxPoint x="665" y="120" as="sourcePoint" />
            <mxPoint x="665" y="190" as="targetPoint" />
          </mxGeometry>
        </mxCell>
        <mxCell id="g9iabU6D1vkNq1i1jFu2-61" value="" style="endArrow=none;html=1;rounded=0;exitX=0;exitY=0.5;exitDx=0;exitDy=0;entryX=1;entryY=0;entryDx=0;entryDy=0;" edge="1" parent="1" source="g9iabU6D1vkNq1i1jFu2-29" target="g9iabU6D1vkNq1i1jFu2-5">
          <mxGeometry relative="1" as="geometry">
            <mxPoint x="810.2512626584708" y="115.60660171779841" as="sourcePoint" />
            <mxPoint x="720" y="170" as="targetPoint" />
          </mxGeometry>
        </mxCell>
        <mxCell id="g9iabU6D1vkNq1i1jFu2-62" value="" style="endArrow=none;html=1;rounded=0;entryX=0.25;entryY=0;entryDx=0;entryDy=0;exitX=0.5;exitY=1;exitDx=0;exitDy=0;" edge="1" parent="1" source="g9iabU6D1vkNq1i1jFu2-30" target="g9iabU6D1vkNq1i1jFu2-4">
          <mxGeometry relative="1" as="geometry">
            <mxPoint x="310" y="560" as="sourcePoint" />
            <mxPoint x="470" y="560" as="targetPoint" />
          </mxGeometry>
        </mxCell>
        <mxCell id="g9iabU6D1vkNq1i1jFu2-63" value="" style="endArrow=none;html=1;rounded=0;entryX=1;entryY=1;entryDx=0;entryDy=0;exitX=0;exitY=0.5;exitDx=0;exitDy=0;" edge="1" parent="1" source="g9iabU6D1vkNq1i1jFu2-31" target="g9iabU6D1vkNq1i1jFu2-4">
          <mxGeometry relative="1" as="geometry">
            <mxPoint x="615" y="590" as="sourcePoint" />
            <mxPoint x="655" y="660" as="targetPoint" />
          </mxGeometry>
        </mxCell>
        <mxCell id="g9iabU6D1vkNq1i1jFu2-64" value="" style="endArrow=none;html=1;rounded=0;entryX=0.75;entryY=0;entryDx=0;entryDy=0;exitX=0;exitY=1;exitDx=0;exitDy=0;" edge="1" parent="1" source="g9iabU6D1vkNq1i1jFu2-32" target="g9iabU6D1vkNq1i1jFu2-4">
          <mxGeometry relative="1" as="geometry">
            <mxPoint x="720" y="570" as="sourcePoint" />
            <mxPoint x="680" y="660" as="targetPoint" />
          </mxGeometry>
        </mxCell>
        <mxCell id="g9iabU6D1vkNq1i1jFu2-65" value="" style="endArrow=none;html=1;rounded=0;entryX=1;entryY=0;entryDx=0;entryDy=0;exitX=0;exitY=0.5;exitDx=0;exitDy=0;" edge="1" parent="1" source="g9iabU6D1vkNq1i1jFu2-33" target="g9iabU6D1vkNq1i1jFu2-4">
          <mxGeometry relative="1" as="geometry">
            <mxPoint x="773.0300000000002" y="573" as="sourcePoint" />
            <mxPoint x="705" y="660" as="targetPoint" />
          </mxGeometry>
        </mxCell>
        <mxCell id="g9iabU6D1vkNq1i1jFu2-66" value="" style="endArrow=none;html=1;rounded=0;entryX=1;entryY=0.5;entryDx=0;entryDy=0;exitX=0;exitY=0.5;exitDx=0;exitDy=0;" edge="1" parent="1" source="g9iabU6D1vkNq1i1jFu2-34" target="g9iabU6D1vkNq1i1jFu2-4">
          <mxGeometry relative="1" as="geometry">
            <mxPoint x="783.0300000000002" y="583" as="sourcePoint" />
            <mxPoint x="715" y="670" as="targetPoint" />
          </mxGeometry>
        </mxCell>
        <mxCell id="g9iabU6D1vkNq1i1jFu2-67" value="" style="endArrow=none;html=1;rounded=0;exitX=0.25;exitY=1;exitDx=0;exitDy=0;" edge="1" parent="1" source="g9iabU6D1vkNq1i1jFu2-40">
          <mxGeometry relative="1" as="geometry">
            <mxPoint x="310" y="640" as="sourcePoint" />
            <mxPoint x="70" y="730" as="targetPoint" />
          </mxGeometry>
        </mxCell>
        <mxCell id="g9iabU6D1vkNq1i1jFu2-68" value="" style="endArrow=none;html=1;rounded=0;exitX=0.5;exitY=0;exitDx=0;exitDy=0;entryX=0.957;entryY=0.753;entryDx=0;entryDy=0;entryPerimeter=0;" edge="1" parent="1" source="g9iabU6D1vkNq1i1jFu2-40" target="g9iabU6D1vkNq1i1jFu2-35">
          <mxGeometry relative="1" as="geometry">
            <mxPoint x="148.20000000000005" y="649" as="sourcePoint" />
            <mxPoint x="145" y="590" as="targetPoint" />
          </mxGeometry>
        </mxCell>
        <mxCell id="g9iabU6D1vkNq1i1jFu2-69" value="" style="endArrow=none;html=1;rounded=0;exitX=0;exitY=0;exitDx=0;exitDy=0;entryX=1;entryY=0.5;entryDx=0;entryDy=0;" edge="1" parent="1" source="g9iabU6D1vkNq1i1jFu2-40">
          <mxGeometry relative="1" as="geometry">
            <mxPoint x="130" y="650" as="sourcePoint" />
            <mxPoint x="30" y="645" as="targetPoint" />
          </mxGeometry>
        </mxCell>
        <mxCell id="g9iabU6D1vkNq1i1jFu2-70" value="" style="endArrow=none;html=1;rounded=0;exitX=0;exitY=0.75;exitDx=0;exitDy=0;entryX=0.757;entryY=-0.007;entryDx=0;entryDy=0;entryPerimeter=0;" edge="1" parent="1" source="g9iabU6D1vkNq1i1jFu2-40">
          <mxGeometry relative="1" as="geometry">
            <mxPoint x="80" y="650" as="sourcePoint" />
            <mxPoint x="12.990000000000009" y="689.79" as="targetPoint" />
          </mxGeometry>
        </mxCell>
        <mxCell id="g9iabU6D1vkNq1i1jFu2-73" value="HAS_MAIJOR" style="shape=rhombus;perimeter=rhombusPerimeter;whiteSpace=wrap;html=1;align=center;strokeWidth=2;" vertex="1" parent="1">
          <mxGeometry x="390" y="130" width="120" height="40" as="geometry" />
        </mxCell>
        <mxCell id="g9iabU6D1vkNq1i1jFu2-74" value="HAS_MINOR" style="shape=rhombus;perimeter=rhombusPerimeter;whiteSpace=wrap;html=1;align=center;strokeWidth=2;" vertex="1" parent="1">
          <mxGeometry x="390" y="200" width="120" height="40" as="geometry" />
        </mxCell>
        <mxCell id="g9iabU6D1vkNq1i1jFu2-75" value="" style="endArrow=none;html=1;rounded=0;exitX=0.582;exitY=0.007;exitDx=0;exitDy=0;entryX=0;entryY=1;entryDx=0;entryDy=0;exitPerimeter=0;" edge="1" parent="1" source="g9iabU6D1vkNq1i1jFu2-2" target="g9iabU6D1vkNq1i1jFu2-14">
          <mxGeometry relative="1" as="geometry">
            <mxPoint x="205" y="180" as="sourcePoint" />
            <mxPoint x="310" y="125" as="targetPoint" />
          </mxGeometry>
        </mxCell>
        <mxCell id="g9iabU6D1vkNq1i1jFu2-76" value="" style="shape=link;html=1;rounded=0;entryX=0;entryY=0.5;entryDx=0;entryDy=0;exitX=1;exitY=0.5;exitDx=0;exitDy=0;" edge="1" parent="1" source="g9iabU6D1vkNq1i1jFu2-73" target="g9iabU6D1vkNq1i1jFu2-5">
          <mxGeometry relative="1" as="geometry">
            <mxPoint x="380" y="150" as="sourcePoint" />
            <mxPoint x="540" y="150" as="targetPoint" />
          </mxGeometry>
        </mxCell>
        <mxCell id="g9iabU6D1vkNq1i1jFu2-77" value="1" style="resizable=0;html=1;align=right;verticalAlign=bottom;" connectable="0" vertex="1" parent="g9iabU6D1vkNq1i1jFu2-76">
          <mxGeometry x="1" relative="1" as="geometry">
            <mxPoint x="-14.59" y="-4.870000000000001" as="offset" />
          </mxGeometry>
        </mxCell>
        <mxCell id="g9iabU6D1vkNq1i1jFu2-78" value="" style="shape=link;html=1;rounded=0;exitX=1;exitY=0.5;exitDx=0;exitDy=0;entryX=0;entryY=0.5;entryDx=0;entryDy=0;" edge="1" parent="1" source="g9iabU6D1vkNq1i1jFu2-2" target="g9iabU6D1vkNq1i1jFu2-73">
          <mxGeometry relative="1" as="geometry">
            <mxPoint x="380" y="150" as="sourcePoint" />
            <mxPoint x="540" y="150" as="targetPoint" />
          </mxGeometry>
        </mxCell>
        <mxCell id="g9iabU6D1vkNq1i1jFu2-79" value="N" style="resizable=0;html=1;align=right;verticalAlign=bottom;" connectable="0" vertex="1" parent="g9iabU6D1vkNq1i1jFu2-78">
          <mxGeometry x="1" relative="1" as="geometry">
            <mxPoint x="-150.43" y="30.09" as="offset" />
          </mxGeometry>
        </mxCell>
        <mxCell id="g9iabU6D1vkNq1i1jFu2-80" value="" style="endArrow=none;html=1;rounded=0;entryX=0;entryY=0.75;entryDx=0;entryDy=0;exitX=1;exitY=0.5;exitDx=0;exitDy=0;" edge="1" parent="1" source="g9iabU6D1vkNq1i1jFu2-74" target="g9iabU6D1vkNq1i1jFu2-5">
          <mxGeometry relative="1" as="geometry">
            <mxPoint x="380" y="150" as="sourcePoint" />
            <mxPoint x="540" y="150" as="targetPoint" />
          </mxGeometry>
        </mxCell>
        <mxCell id="g9iabU6D1vkNq1i1jFu2-81" value="1" style="resizable=0;html=1;align=right;verticalAlign=bottom;" connectable="0" vertex="1" parent="g9iabU6D1vkNq1i1jFu2-80">
          <mxGeometry x="1" relative="1" as="geometry">
            <mxPoint x="-14.63" y="27.41" as="offset" />
          </mxGeometry>
        </mxCell>
        <mxCell id="g9iabU6D1vkNq1i1jFu2-82" value="" style="endArrow=none;html=1;rounded=0;exitX=1;exitY=0.75;exitDx=0;exitDy=0;entryX=0;entryY=0.5;entryDx=0;entryDy=0;" edge="1" parent="1" source="g9iabU6D1vkNq1i1jFu2-2" target="g9iabU6D1vkNq1i1jFu2-74">
          <mxGeometry relative="1" as="geometry">
            <mxPoint x="380" y="150" as="sourcePoint" />
            <mxPoint x="540" y="150" as="targetPoint" />
          </mxGeometry>
        </mxCell>
        <mxCell id="g9iabU6D1vkNq1i1jFu2-83" value="N" style="resizable=0;html=1;align=right;verticalAlign=bottom;" connectable="0" vertex="1" parent="g9iabU6D1vkNq1i1jFu2-82">
          <mxGeometry x="1" relative="1" as="geometry">
            <mxPoint x="-149.79" y="-3.9699999999999998" as="offset" />
          </mxGeometry>
        </mxCell>
        <mxCell id="g9iabU6D1vkNq1i1jFu2-85" value="OFFER" style="shape=rhombus;perimeter=rhombusPerimeter;whiteSpace=wrap;html=1;align=center;strokeWidth=2;" vertex="1" parent="1">
          <mxGeometry x="610" y="370" width="120" height="40" as="geometry" />
        </mxCell>
        <mxCell id="g9iabU6D1vkNq1i1jFu2-86" value="" style="shape=link;html=1;rounded=0;entryX=0.5;entryY=1;entryDx=0;entryDy=0;exitX=0.5;exitY=0;exitDx=0;exitDy=0;" edge="1" parent="1" source="g9iabU6D1vkNq1i1jFu2-85" target="g9iabU6D1vkNq1i1jFu2-5">
          <mxGeometry relative="1" as="geometry">
            <mxPoint x="380" y="410" as="sourcePoint" />
            <mxPoint x="540" y="410" as="targetPoint" />
          </mxGeometry>
        </mxCell>
        <mxCell id="g9iabU6D1vkNq1i1jFu2-87" value="1" style="resizable=0;html=1;align=right;verticalAlign=bottom;" connectable="0" vertex="1" parent="g9iabU6D1vkNq1i1jFu2-86">
          <mxGeometry x="1" relative="1" as="geometry">
            <mxPoint x="-6.970000000000001" y="20.34" as="offset" />
          </mxGeometry>
        </mxCell>
        <mxCell id="g9iabU6D1vkNq1i1jFu2-88" value="" style="shape=link;html=1;rounded=0;entryX=0.5;entryY=0;entryDx=0;entryDy=0;exitX=0.5;exitY=1;exitDx=0;exitDy=0;" edge="1" parent="1" source="g9iabU6D1vkNq1i1jFu2-85" target="g9iabU6D1vkNq1i1jFu2-4">
          <mxGeometry relative="1" as="geometry">
            <mxPoint x="380" y="410" as="sourcePoint" />
            <mxPoint x="540" y="410" as="targetPoint" />
          </mxGeometry>
        </mxCell>
        <mxCell id="g9iabU6D1vkNq1i1jFu2-89" value="N" style="resizable=0;html=1;align=right;verticalAlign=bottom;" connectable="0" vertex="1" parent="g9iabU6D1vkNq1i1jFu2-88">
          <mxGeometry x="1" relative="1" as="geometry">
            <mxPoint x="-4" y="-4" as="offset" />
          </mxGeometry>
        </mxCell>
        <mxCell id="g9iabU6D1vkNq1i1jFu2-92" value="HAS" style="shape=rhombus;double=1;perimeter=rhombusPerimeter;whiteSpace=wrap;html=1;align=center;strokeWidth=2;" vertex="1" parent="1">
          <mxGeometry x="340" y="640" width="115" height="40" as="geometry" />
        </mxCell>
        <mxCell id="g9iabU6D1vkNq1i1jFu2-94" value="" style="endArrow=none;html=1;rounded=0;entryX=0;entryY=0.5;entryDx=0;entryDy=0;exitX=1;exitY=0.5;exitDx=0;exitDy=0;" edge="1" parent="1" source="g9iabU6D1vkNq1i1jFu2-92" target="g9iabU6D1vkNq1i1jFu2-4">
          <mxGeometry relative="1" as="geometry">
            <mxPoint x="380" y="500" as="sourcePoint" />
            <mxPoint x="540" y="500" as="targetPoint" />
          </mxGeometry>
        </mxCell>
        <mxCell id="g9iabU6D1vkNq1i1jFu2-95" value="1" style="resizable=0;html=1;align=right;verticalAlign=bottom;" connectable="0" vertex="1" parent="g9iabU6D1vkNq1i1jFu2-94">
          <mxGeometry x="1" relative="1" as="geometry">
            <mxPoint x="-10" y="-1" as="offset" />
          </mxGeometry>
        </mxCell>
        <mxCell id="g9iabU6D1vkNq1i1jFu2-96" value="" style="shape=link;html=1;rounded=0;exitX=1;exitY=0.5;exitDx=0;exitDy=0;entryX=0;entryY=0.5;entryDx=0;entryDy=0;" edge="1" parent="1" source="g9iabU6D1vkNq1i1jFu2-40" target="g9iabU6D1vkNq1i1jFu2-92">
          <mxGeometry relative="1" as="geometry">
            <mxPoint x="380" y="500" as="sourcePoint" />
            <mxPoint x="540" y="500" as="targetPoint" />
          </mxGeometry>
        </mxCell>
        <mxCell id="g9iabU6D1vkNq1i1jFu2-97" value="N" style="resizable=0;html=1;align=right;verticalAlign=bottom;" connectable="0" vertex="1" parent="g9iabU6D1vkNq1i1jFu2-96">
          <mxGeometry x="1" relative="1" as="geometry">
            <mxPoint x="-129.92" y="-5" as="offset" />
          </mxGeometry>
        </mxCell>
        <mxCell id="g9iabU6D1vkNq1i1jFu2-99" value="TAKES CLASS" style="shape=rhombus;double=1;perimeter=rhombusPerimeter;whiteSpace=wrap;html=1;align=center;strokeWidth=2;" vertex="1" parent="1">
          <mxGeometry x="65" y="410" width="115" height="50" as="geometry" />
        </mxCell>
        <mxCell id="g9iabU6D1vkNq1i1jFu2-100" value="" style="endArrow=none;html=1;rounded=0;entryX=0.578;entryY=0.015;entryDx=0;entryDy=0;entryPerimeter=0;exitX=0.5;exitY=1;exitDx=0;exitDy=0;" edge="1" parent="1" source="g9iabU6D1vkNq1i1jFu2-99" target="g9iabU6D1vkNq1i1jFu2-40">
          <mxGeometry relative="1" as="geometry">
            <mxPoint x="380" y="410" as="sourcePoint" />
            <mxPoint x="540" y="410" as="targetPoint" />
          </mxGeometry>
        </mxCell>
        <mxCell id="g9iabU6D1vkNq1i1jFu2-101" value="N" style="resizable=0;html=1;align=right;verticalAlign=bottom;" connectable="0" vertex="1" parent="g9iabU6D1vkNq1i1jFu2-100">
          <mxGeometry x="1" relative="1" as="geometry">
            <mxPoint x="-4" y="-6" as="offset" />
          </mxGeometry>
        </mxCell>
        <mxCell id="g9iabU6D1vkNq1i1jFu2-102" value="" style="shape=link;html=1;rounded=0;exitX=0.5;exitY=1;exitDx=0;exitDy=0;entryX=0.5;entryY=0;entryDx=0;entryDy=0;" edge="1" parent="1" source="g9iabU6D1vkNq1i1jFu2-2" target="g9iabU6D1vkNq1i1jFu2-99">
          <mxGeometry relative="1" as="geometry">
            <mxPoint x="380" y="410" as="sourcePoint" />
            <mxPoint x="540" y="410" as="targetPoint" />
          </mxGeometry>
        </mxCell>
        <mxCell id="g9iabU6D1vkNq1i1jFu2-103" value="M" style="resizable=0;html=1;align=left;verticalAlign=bottom;" connectable="0" vertex="1" parent="g9iabU6D1vkNq1i1jFu2-102">
          <mxGeometry x="-1" relative="1" as="geometry">
            <mxPoint y="30" as="offset" />
          </mxGeometry>
        </mxCell>
        <mxCell id="g9iabU6D1vkNq1i1jFu2-106" value="Numberic Grade" style="ellipse;whiteSpace=wrap;html=1;align=center;fontStyle=0;strokeWidth=2;" vertex="1" parent="1">
          <mxGeometry x="230" y="470" width="100" height="30" as="geometry" />
        </mxCell>
        <mxCell id="g9iabU6D1vkNq1i1jFu2-107" value="Letter Grade" style="ellipse;whiteSpace=wrap;html=1;align=center;fontStyle=0;strokeWidth=2;" vertex="1" parent="1">
          <mxGeometry x="240" y="395" width="80" height="30" as="geometry" />
        </mxCell>
        <mxCell id="g9iabU6D1vkNq1i1jFu2-109" value="" style="endArrow=none;html=1;rounded=0;exitX=1;exitY=0.5;exitDx=0;exitDy=0;entryX=0;entryY=0.5;entryDx=0;entryDy=0;" edge="1" parent="1" source="g9iabU6D1vkNq1i1jFu2-99" target="g9iabU6D1vkNq1i1jFu2-107">
          <mxGeometry relative="1" as="geometry">
            <mxPoint x="220" y="430" as="sourcePoint" />
            <mxPoint x="540" y="400" as="targetPoint" />
          </mxGeometry>
        </mxCell>
        <mxCell id="g9iabU6D1vkNq1i1jFu2-110" value="" style="endArrow=none;html=1;rounded=0;exitX=1;exitY=0.5;exitDx=0;exitDy=0;entryX=0;entryY=0.5;entryDx=0;entryDy=0;" edge="1" parent="1" source="g9iabU6D1vkNq1i1jFu2-99" target="g9iabU6D1vkNq1i1jFu2-106">
          <mxGeometry relative="1" as="geometry">
            <mxPoint x="190" y="445" as="sourcePoint" />
            <mxPoint x="250" y="420" as="targetPoint" />
          </mxGeometry>
        </mxCell>
        <mxCell id="g9iabU6D1vkNq1i1jFu2-111" value="&lt;span style=&quot;border-bottom: 1px dotted&quot;&gt;Semeter&lt;/span&gt;" style="ellipse;whiteSpace=wrap;html=1;align=center;strokeWidth=2;" vertex="1" parent="1">
          <mxGeometry x="-50" y="630" width="80" height="35" as="geometry" />
        </mxCell>
        <mxCell id="g9iabU6D1vkNq1i1jFu2-112" value="&lt;span style=&quot;border-bottom: 1px dotted&quot;&gt;Year&lt;/span&gt;" style="ellipse;whiteSpace=wrap;html=1;align=center;strokeWidth=2;" vertex="1" parent="1">
          <mxGeometry x="-60" y="675" width="80" height="35" as="geometry" />
        </mxCell>
      </root>
    </mxGraphModel>
  </diagram>
</mxfile>
